<svg xmlns="http://www.w3.org/2000/svg" xmlns:xlink="http://www.w3.org/1999/xlink" width="15006" zoomAndPan="magnify" viewBox="0 0 11254.5 8906.249656" height="11875" preserveAspectRatio="xMidYMid meet" version="1.0"><defs><filter x="0%" y="0%" width="100%" height="100%" id="b7a6f12e96"><feColorMatrix values="0 0 0 0 1 0 0 0 0 1 0 0 0 0 1 0 0 0 1 0" color-interpolation-filters="sRGB"/></filter><g/><mask id="04700c8ae5"><g filter="url(#b7a6f12e96)"><rect x="-1125.45" width="13505.4" fill="#000000" y="-890.624966" height="10687.499588" fill-opacity="0.15"/></g></mask><clipPath id="d8d00a115e"><rect x="0" width="7950" y="0" height="5766"/></clipPath></defs><g mask="url(#04700c8ae5)"><g transform="matrix(1, 0, 0, 1, 1936, 1815)"><g clip-path="url(#d8d00a115e)"><g fill="#000000" fill-opacity="1"><g transform="translate(0.662684, 4575.912798)"><g><path d="M 2672.828125 -2147.71875 L 1239.4375 -1655.734375 L 2672.828125 -1163.75 L 2672.828125 -359.53125 L 260.1875 -1234.703125 L 260.1875 -2076.765625 L 2672.828125 -2951.9375 Z M 2672.828125 -2147.71875 "/></g></g></g><g fill="#000000" fill-opacity="1"><g transform="translate(2933.673733, 4575.912798)"><g><path d="M 1371.890625 -3983.21875 L 2318.03125 -3983.21875 L 756.90625 473.0625 L -189.234375 473.0625 Z M 1371.890625 -3983.21875 "/></g></g></g><g fill="#000000" fill-opacity="1"><g transform="translate(5015.165707, 4575.912798)"><g><path d="M 2672.828125 -2076.765625 L 2672.828125 -1234.703125 L 260.1875 -359.53125 L 260.1875 -1163.75 L 1693.578125 -1655.734375 L 260.1875 -2147.71875 L 260.1875 -2951.9375 Z M 2672.828125 -2076.765625 "/></g></g></g></g></g></g><g fill="#ffffff" fill-opacity="1"><g transform="translate(1369.753353, 5899.28431)"><g><path d="M 2672.828125 -2147.71875 L 1239.4375 -1655.734375 L 2672.828125 -1163.75 L 2672.828125 -359.53125 L 260.1875 -1234.703125 L 260.1875 -2076.765625 L 2672.828125 -2951.9375 Z M 2672.828125 -2147.71875 "/></g></g></g><g fill="#ffffff" fill-opacity="1"><g transform="translate(4302.764402, 5899.28431)"><g><path d="M 1371.890625 -3983.21875 L 2318.03125 -3983.21875 L 756.90625 473.0625 L -189.234375 473.0625 Z M 1371.890625 -3983.21875 "/></g></g></g><g fill="#ffffff" fill-opacity="1"><g transform="translate(6384.256376, 5899.28431)"><g><path d="M 2672.828125 -2076.765625 L 2672.828125 -1234.703125 L 260.1875 -359.53125 L 260.1875 -1163.75 L 1693.578125 -1655.734375 L 260.1875 -2147.71875 L 260.1875 -2951.9375 Z M 2672.828125 -2076.765625 "/></g></g></g></svg>